<?xml version="1.0" encoding="UTF-8" standalone="no"?>
<svg
   xmlns:dc="http://purl.org/dc/elements/1.1/"
   xmlns:cc="http://creativecommons.org/ns#"
   xmlns:rdf="http://www.w3.org/1999/02/22-rdf-syntax-ns#"
   xmlns:svg="http://www.w3.org/2000/svg"
   xmlns="http://www.w3.org/2000/svg"
   xmlns:sodipodi="http://sodipodi.sourceforge.net/DTD/sodipodi-0.dtd"
   xmlns:inkscape="http://www.inkscape.org/namespaces/inkscape"
   width="3.96875mm"
   height="6.6145833333mm"
   viewBox="0 0 118.60563 190.36748"
   fill="currentColor"
   version="1.1"
   id="svg8"
   inkscape:version="1.0.2 (e86c870879, 2021-01-15)"
   sodipodi:docname="DrawSheet.svg">
  <defs
     id="defs2" />
  <sodipodi:namedview
     id="base"
     pagecolor="#ffffff"
     bordercolor="#666666"
     borderopacity="1.0"
     inkscape:pageopacity="0.0"
     inkscape:pageshadow="2"
     inkscape:zoom="0.7"
     inkscape:cx="7.0846349"
     inkscape:cy="472.17236"
     inkscape:document-units="mm"
     inkscape:current-layer="layer1"
     inkscape:document-rotation="0"
     showgrid="false"
     inkscape:window-width="1920"
     inkscape:window-height="1005"
     inkscape:window-x="0"
     inkscape:window-y="0"
     inkscape:window-maximized="1" />
  <metadata
     id="metadata5">
    <rdf:RDF>
      <cc:Work
         rdf:about="">
        <dc:format>image/svg+xml</dc:format>
        <dc:type
           rdf:resource="http://purl.org/dc/dcmitype/StillImage" />
        <dc:title></dc:title>
      </cc:Work>
    </rdf:RDF>
  </metadata>
  <g
     inkscape:label="Layer 1"
     inkscape:groupmode="layer"
     id="layer1"
     transform="translate(-21.275928,-17.253726)">
    <path
       id="path1035"
       style="fill-opacity:1;stroke-width:0.999999"
       d="m 351.22461,65.210938 c -0.7975,-0.0027 -3.76703,2.123341 -7.79297,5.40625 -1.72654,1.374147 -3.69501,3.032983 -5.75391,4.804687 -3.53175,2.932969 -7.29075,6.301826 -11.26367,10.101563 -0.0772,0.07385 -0.16756,0.153063 -0.24414,0.226562 -5.80759,5.573863 -11.98047,11.94745 -18.41015,18.95508 -0.61077,0.6629 -1.21987,1.32142 -1.83399,1.99414 -0.024,0.0263 -0.0482,0.0538 -0.0723,0.0801 -1.66461,1.82411 -3.34359,3.69173 -5.03125,5.58593 -0.70581,0.79111 -1.41189,1.58602 -2.1211,2.38868 -1.12034,1.26957 -2.24774,2.55888 -3.37695,3.85742 -1.52887,1.7563 -3.06625,3.5421 -4.60938,5.34961 -0.5345,0.62647 -1.06735,1.25036 -1.60351,1.88281 -1.26251,1.48854 -2.5276,2.99008 -3.79883,4.51172 -0.0103,0.0123 -0.0209,0.0248 -0.0312,0.0371 -2.46184,2.94713 -4.93983,5.9596 -7.43164,9.02734 -0.70344,0.8653 -1.40796,1.73141 -2.11328,2.60547 -0.91021,1.12918 -1.81871,2.25971 -2.73242,3.4043 -1.79897,2.25033 -3.60175,4.52685 -5.41016,6.83008 -2.24751,2.86824 -4.50489,5.7791 -6.76953,8.73437 -27.19793,35.39733 -55.00386,76.08976 -79.60352,117 -17.10101,28.43968 -32.10111,56.01718 -44.96093,82.63477 -2.43801,5.02776 -4.76472,9.97969 -7.00196,14.86914 -0.31672,0.68974 -0.63155,1.37802 -0.94531,2.0664 -0.40436,0.89164 -0.82932,1.79913 -1.22656,2.68555 -0.26044,0.58115 -0.51768,1.17386 -0.77735,1.75781 -4.47968,9.99047 -8.63961,19.8355 -12.48632,29.53125 -0.11785,0.2963 -0.23627,0.59267 -0.35352,0.88867 -1.0461,2.64758 -2.06977,5.2832 -3.06836,7.90821 -0.19711,0.51679 -0.39851,1.0369 -0.59375,1.55273 -0.88715,2.35013 -1.75271,4.68971 -2.60156,7.02149 -0.95079,2.60489 -1.86968,5.19221 -2.77149,7.77148 -0.10605,0.30409 -0.21687,0.6103 -0.32226,0.91406 -3.04201,8.74634 -5.796439,17.3392 -8.26758,25.77539 -0.142364,0.47506 -0.274425,0.93687 -0.414062,1.40821 -0.252954,0.87303 -0.518872,1.75349 -0.765626,2.62304 -1.296873,4.47707 -2.477729,8.79192 -3.49414,12.84766 -0.849267,3.38878 -1.632135,6.75505 -2.38086,10.11133 -0.135409,0.58824 -0.269829,1.17691 -0.402343,1.76367 -0.07487,0.3355 -0.158576,0.67487 -0.232422,1.00977 -2.137497,9.57072 -3.898187,18.94818 -5.259766,28.11523 -0.345304,2.32604 -0.639464,5.17935 -0.892578,8.37305 -0.150023,1.33357 -0.293036,2.66107 -0.423828,3.98242 -0.403008,4.07143 -0.668928,9.2666 -0.824219,14.91015 -0.624266,13.03241 -0.391317,25.75183 0.699219,38.13477 0.1358,1.83403 0.289897,3.51601 0.457031,5.08203 0.274842,3.68547 0.601794,6.96327 0.996094,9.51758 4.521562,29.29098 13.510606,55.79464 26.70508,79.01367 0.0563,0.10003 0.11151,0.20089 0.16797,0.30078 0.21486,0.37662 0.43135,0.75208 0.64843,1.12696 11.46161,19.97117 26.08937,37.33184 43.48438,51.82812 1.42001,1.19091 2.85617,2.3662 4.31445,3.51953 0.12605,0.1003 0.25067,0.20277 0.37696,0.30274 0.3592,0.28263 0.72443,0.55949 1.08593,0.83984 6.02218,4.69785 12.31746,9.03112 18.9043,13.01172 0.28731,0.17457 0.57689,0.3463 0.86523,0.51953 0.76001,0.45396 1.52126,0.90694 2.28907,1.35156 27.39741,15.97217 59.38595,25.99815 96.30468,30.20703 h 0.002 c 0.91168,0.10391 1.94446,0.19615 3.02539,0.28516 1.64798,0.19239 3.30334,0.37937 4.97461,0.55274 0.50413,0.0523 1.68736,0.0962 3.29492,0.13085 2.19381,0.12709 5.01469,0.20561 8.32227,0.23829 0.27264,0.006 0.54043,0.0127 0.82617,0.0176 5.13351,0.23581 11.11626,0.27246 17.4414,0.13086 1.33964,-0.0116 2.6673,-0.0481 3.99805,-0.0781 9.10048,-0.12748 17.55945,-0.51187 23.70898,-1.16992 4.2801,-0.29521 7.88556,-0.65033 10.40625,-1.0625 0.94118,-0.1539 1.87708,-0.31685 2.8125,-0.48047 6.51918,-1.02241 12.92372,-2.45926 20.68946,-4.48242 15.02639,-3.91474 29.21436,-9.2505 42.44726,-15.89258 5.32615,-2.63548 10.43536,-5.46034 15.27149,-8.4668 2.34737,-1.45928 4.65577,-2.96139 6.92383,-4.50586 1.39399,-0.94052 2.77246,-1.89924 4.13867,-2.87305 0.14652,-0.10423 0.2952,-0.20592 0.4414,-0.31054 0.48263,-0.34603 0.95839,-0.70062 1.4375,-1.05078 1.07692,-0.78261 2.14644,-1.57197 3.20508,-2.375 0.006,-0.005 0.0117,-0.009 0.0176,-0.0137 29.0186,-22.01746 51.14231,-51.6835 64.60938,-87.61523 1.68167,-4.48691 3.18631,-9.0551 4.53124,-13.68164 0.29522,-1.00165 0.57514,-2.00655 0.85352,-3.01172 0.073,-0.26697 0.14688,-0.53342 0.21875,-0.80078 0.42198,-1.54997 0.82471,-3.10451 1.20703,-4.66406 0.0919,-0.37201 0.17982,-0.74474 0.26953,-1.11719 0.29435,-1.23296 0.57979,-2.46921 0.84961,-3.70899 0.23268,-1.05415 0.45256,-2.11056 0.66797,-3.16796 0.0873,-0.4366 0.17547,-0.87301 0.25977,-1.31055 3.12713,-15.89493 4.32448,-32.1365 3.55664,-48.47852 -0.88631,-21.63454 -5.05402,-43.19364 -12.51367,-63.42382 -3.06278,-8.30605 -6.68471,-16.62583 -10.98047,-25.20118 -0.89802,-1.82894 -1.83297,-3.66841 -2.80274,-5.52148 -0.0364,-0.0701 -0.0749,-0.14086 -0.11133,-0.21094 -6.08777,-11.77173 -13.34353,-23.64671 -23.40429,-38.0957 -8.35715,-12.18261 -18.08501,-25.33657 -29.49219,-39.93555 -3.37728,-4.32227 -6.29541,-8.08303 -9.32227,-11.97656 -1.1411,-1.46866 -2.30748,-2.96727 -3.49023,-4.48438 -15.87682,-20.47173 -26.98459,-35.16829 -35.45508,-47.06054 -10.06714,-14.35086 -18.33614,-27.4155 -25.29101,-40.02149 -2.3636,-4.41604 -4.68076,-8.93719 -7.05078,-13.76562 -1.9797,-4.03323 -3.81767,-7.95529 -5.53321,-11.81055 -11.74515,-27.00708 -18.98684,-54.61206 -21.83984,-83.67969 -0.69999,-8.72093 -1.02909,-18.01891 -1.05078,-28.37109 -0.0216,-10.31847 0.24884,-19.65053 0.86523,-28.66797 1.37495,-16.31405 3.90075,-33.167224 7.60352,-50.701171 0.87495,-4.14321 1.62022,-7.971003 2.125,-10.824218 0.23996,-1.303296 0.42868,-2.418652 0.54101,-3.238282 0.0888,-0.420251 0.14469,-0.762215 0.15821,-1.03125 0.0462,-0.274534 0.13867,-0.761517 0.13867,-0.818359 0,-0.01021 -0.009,-0.0122 -0.01,-0.02148 6e-5,-0.0018 0.01,-0.0473 0.01,-0.04883 0,-0.09392 -0.0602,-0.132722 -0.16797,-0.128907 -3.7e-4,-4.14e-4 3.8e-4,-0.0055 0,-0.0059 -0.0361,-0.03449 -0.0909,-0.0525 -0.16211,-0.05273 z M 103.82031,588.91406 c 1.08525,-0.102 2.13477,0.68544 3.43555,2.95508 0,0 0,0.002 0,0.002 0.22125,0.38612 0.45029,0.8149 0.6875,1.28907 1.89788,3.7983 4.34937,10.51227 8.08203,21.58984 0.76891,2.28192 1.55147,4.51839 2.33984,6.73047 4.9644,14.72392 10.07567,26.96662 15.97852,37.70898 1.20541,2.23331 2.43727,4.39698 3.70898,6.49414 1.54512,2.68751 3.09557,5.22361 4.64454,7.56641 1.78684,2.70259 4.24592,5.82261 7.14843,9.14844 2.41756,2.93199 4.91963,5.71049 7.54688,8.33203 0,0 0,0.002 0,0.002 0.59548,0.59421 1.27866,1.25486 2.03515,1.9707 0.84618,0.80098 1.81467,1.69058 2.82032,2.60743 5.63031,5.36305 11.98144,10.78503 19.30664,16.61133 5.56969,4.42998 10.73519,8.68865 13.79687,11.33398 1.21582,1.14685 2.23698,2.16405 2.91211,2.94922 0.0755,0.0973 0.14762,0.19253 0.21485,0.28515 0.004,0.006 0.009,0.0132 0.0137,0.0195 0.093,0.13915 0.19463,0.28336 0.26367,0.41015 0.10324,0.19258 0.18347,0.3741 0.23633,0.54297 0,0 0,0.002 0,0.002 0.038,0.12192 0.0485,0.2319 0.0625,0.34375 -1.6e-4,0.0519 -0.005,0.0909 -0.006,0.14063 -0.002,0.16491 -0.008,0.32248 -0.0176,0.46484 -0.0288,0.10556 -0.0807,0.20617 -0.13086,0.30664 -0.216,0.18012 -0.46772,0.3756 -0.80078,0.61914 -0.62755,0.45888 -1.41397,0.77513 -2.32227,0.97461 -0.6383,0.0571 -1.35479,0.1029 -2.23242,0.13477 -0.88579,0.0322 -1.80283,0.002 -2.74023,-0.0703 -1.20669,-0.15867 -2.50509,-0.42126 -3.88086,-0.78321 -3.35094,-0.95995 -7.15976,-2.47128 -11.14063,-4.40429 -6.67745,-3.32723 -13.87502,-7.88157 -20.34961,-13.04493 -2.41228,-2.10205 -4.86215,-4.38682 -7.375,-6.89648 -2.2458,-2.24296 -4.41257,-4.55789 -6.52929,-6.91406 -4.60382,-5.29424 -9.11987,-11.18582 -13.35547,-17.39063 -0.35994,-0.52919 -0.71643,-1.0594 -1.07227,-1.59179 -0.7651,-1.14335 -1.52203,-2.29491 -2.26562,-3.45508 -0.26436,-0.41087 -0.52394,-0.82276 -0.78516,-1.23438 -6.19589,-9.81779 -11.55573,-20.11483 -15.33008,-29.80664 -0.72034,-1.92293 -1.41145,-3.86079 -2.05859,-5.81445 -3.09049,-9.56564 -5.26046,-19.59456 -6.27539,-28.15235 -0.0537,-0.72864 -0.11113,-1.45783 -0.14844,-2.18359 -0.0335,-1.26027 -0.0589,-2.59831 -0.0723,-4.09765 -0.0217,-2.42809 -0.0176,-4.26713 0.004,-5.90626 0.0607,-2.01379 0.1625,-3.7268 0.34961,-5.03124 0.14427,-0.52071 0.29926,-1.01672 0.48242,-1.45508 0.13421,-0.32121 0.27235,-0.58405 0.40821,-0.86328 0.71241,-1.37235 1.53765,-2.18864 2.41015,-2.43946 z M 169.0293,631.25 c 0.009,10e-6 0.0162,-10e-6 0.0254,0 1.26477,0 2.40024,0.0575 3.44336,0.17773 0.31978,0.0774 0.64066,0.17372 0.96093,0.27149 2.7325,0.99993 5.66447,2.67337 7.72657,4.46484 0.52554,0.56772 1.01786,1.15878 1.45898,1.78125 0.97946,1.45291 1.68202,2.98376 2.11719,4.53907 0.009,0.0444 0.0211,0.0862 0.0293,0.13085 0.0595,0.32333 0.10748,0.65265 0.14648,0.99219 0,0 0,0.002 0,0.002 0.078,0.67896 0.11719,1.39105 0.11719,2.14062 0,2.70776 -0.52248,4.96035 -1.69531,6.98828 -0.0804,0.13012 -0.15639,0.26177 -0.24024,0.39063 -0.006,0.009 -0.0136,0.0179 -0.0195,0.0273 -0.10422,0.15957 -0.21501,0.31548 -0.32422,0.47266 -0.80144,1.02487 -1.95684,2.24442 -3.07031,3.26367 -0.64958,0.5387 -1.356,1.07341 -2.14063,1.60742 -0.21501,0.14634 -0.43555,0.28442 -0.66015,0.41602 -1.75537,0.83994 -4.17818,1.3846 -7.08789,1.56836 -1.15345,0.0728 -2.11825,0.10473 -2.97657,0.0859 -1.31388,-0.18469 -2.61757,-0.48909 -3.86718,-0.93164 -3.03324,-1.17566 -5.6725,-3.15173 -7.54883,-5.58398 -1.8925,-2.71701 -2.8039,-5.94916 -2.6211,-9.13281 0.0137,-0.16885 0.032,-0.31002 0.0469,-0.47071 0.0173,-0.18743 0.0374,-0.37178 0.0566,-0.54883 0.0797,-0.59998 0.19673,-1.19519 0.35742,-1.7832 0.24666,-0.83979 0.56405,-1.65283 0.95703,-2.42969 0.18286,-0.31737 0.36973,-0.63441 0.58399,-0.94922 0.54609,-0.80237 1.07707,-1.52018 1.60742,-2.17187 2.14206,-2.04621 5.81641,-4.09391 9.01953,-5.12695 1.08126,-0.13322 2.27208,-0.19062 3.59766,-0.19141 z"
       transform="scale(0.26458333)" />
  </g>
</svg>
